<mxfile host="Electron" modified="2023-10-11T20:08:23.721Z" agent="Mozilla/5.0 (Windows NT 10.0; Win64; x64) AppleWebKit/537.36 (KHTML, like Gecko) draw.io/22.0.2 Chrome/114.0.5735.289 Electron/25.8.4 Safari/537.36" etag="C7HzhPBTJdOQ2wGTZ3MC" version="22.0.2" type="device">
  <diagram name="Page-1" id="aM1ekeSLNsTqB1f-K4Iu">
    <mxGraphModel dx="1658" dy="820" grid="1" gridSize="10" guides="1" tooltips="1" connect="1" arrows="1" fold="1" page="1" pageScale="1" pageWidth="850" pageHeight="1100" math="0" shadow="0">
      <root>
        <mxCell id="0" />
        <mxCell id="1" parent="0" />
        <mxCell id="o6ZmijZ3-3nJ9GncKMgN-4" value="" style="group" parent="1" vertex="1" connectable="0">
          <mxGeometry x="280" y="70" width="160" height="80" as="geometry" />
        </mxCell>
        <mxCell id="o6ZmijZ3-3nJ9GncKMgN-1" value="Display Login Screen" style="rounded=1;whiteSpace=wrap;html=1;" parent="o6ZmijZ3-3nJ9GncKMgN-4" vertex="1">
          <mxGeometry y="20" width="160" height="60" as="geometry" />
        </mxCell>
        <mxCell id="o6ZmijZ3-3nJ9GncKMgN-3" value="IDLE" style="rounded=1;whiteSpace=wrap;html=1;" parent="o6ZmijZ3-3nJ9GncKMgN-4" vertex="1">
          <mxGeometry width="160" height="20" as="geometry" />
        </mxCell>
        <mxCell id="o6ZmijZ3-3nJ9GncKMgN-5" value="" style="endArrow=classic;html=1;rounded=0;exitX=0.5;exitY=1;exitDx=0;exitDy=0;entryX=0.5;entryY=0;entryDx=0;entryDy=0;" parent="1" source="o6ZmijZ3-3nJ9GncKMgN-1" target="o6ZmijZ3-3nJ9GncKMgN-6" edge="1">
          <mxGeometry width="50" height="50" relative="1" as="geometry">
            <mxPoint x="550" y="440" as="sourcePoint" />
            <mxPoint x="360" y="270" as="targetPoint" />
          </mxGeometry>
        </mxCell>
        <mxCell id="o6ZmijZ3-3nJ9GncKMgN-6" value="Waiting for Username / Password" style="rounded=1;whiteSpace=wrap;html=1;" parent="1" vertex="1">
          <mxGeometry x="290" y="240" width="140" height="60" as="geometry" />
        </mxCell>
        <mxCell id="o6ZmijZ3-3nJ9GncKMgN-7" value="Defaults to &lt;br&gt;Regular Login" style="text;html=1;strokeColor=none;fillColor=none;align=center;verticalAlign=middle;whiteSpace=wrap;rounded=0;" parent="1" vertex="1">
          <mxGeometry x="249" y="175" width="140" height="30" as="geometry" />
        </mxCell>
        <mxCell id="o6ZmijZ3-3nJ9GncKMgN-8" value="" style="endArrow=classic;html=1;rounded=0;exitX=0.5;exitY=1;exitDx=0;exitDy=0;" parent="1" source="o6ZmijZ3-3nJ9GncKMgN-9" edge="1">
          <mxGeometry width="50" height="50" relative="1" as="geometry">
            <mxPoint x="460" y="500" as="sourcePoint" />
            <mxPoint x="360" y="430" as="targetPoint" />
          </mxGeometry>
        </mxCell>
        <mxCell id="o6ZmijZ3-3nJ9GncKMgN-10" value="Credentials entered, check if correct" style="text;html=1;strokeColor=none;fillColor=none;align=center;verticalAlign=middle;whiteSpace=wrap;rounded=0;" parent="1" vertex="1">
          <mxGeometry x="350" y="320" width="140" height="30" as="geometry" />
        </mxCell>
        <mxCell id="o6ZmijZ3-3nJ9GncKMgN-11" value="Display Home Menu" style="rounded=1;whiteSpace=wrap;html=1;" parent="1" vertex="1">
          <mxGeometry x="300" y="500" width="120" height="60" as="geometry" />
        </mxCell>
        <mxCell id="o6ZmijZ3-3nJ9GncKMgN-12" value="" style="endArrow=classic;html=1;rounded=0;exitX=0.5;exitY=1;exitDx=0;exitDy=0;entryX=0.5;entryY=0;entryDx=0;entryDy=0;" parent="1" source="o6ZmijZ3-3nJ9GncKMgN-9" target="o6ZmijZ3-3nJ9GncKMgN-11" edge="1">
          <mxGeometry width="50" height="50" relative="1" as="geometry">
            <mxPoint x="520" y="560" as="sourcePoint" />
            <mxPoint x="570" y="510" as="targetPoint" />
          </mxGeometry>
        </mxCell>
        <mxCell id="o6ZmijZ3-3nJ9GncKMgN-14" value="" style="endArrow=classic;html=1;rounded=0;exitX=0.5;exitY=1;exitDx=0;exitDy=0;" parent="1" source="o6ZmijZ3-3nJ9GncKMgN-6" target="o6ZmijZ3-3nJ9GncKMgN-9" edge="1">
          <mxGeometry width="50" height="50" relative="1" as="geometry">
            <mxPoint x="360" y="300" as="sourcePoint" />
            <mxPoint x="360" y="430" as="targetPoint" />
          </mxGeometry>
        </mxCell>
        <mxCell id="o6ZmijZ3-3nJ9GncKMgN-9" value="Validate Username / Password" style="rounded=1;whiteSpace=wrap;html=1;" parent="1" vertex="1">
          <mxGeometry x="300" y="370" width="120" height="60" as="geometry" />
        </mxCell>
        <mxCell id="o6ZmijZ3-3nJ9GncKMgN-15" value="Correct info, allow homepage access" style="text;html=1;strokeColor=none;fillColor=none;align=center;verticalAlign=middle;whiteSpace=wrap;rounded=0;" parent="1" vertex="1">
          <mxGeometry x="350" y="450" width="140" height="30" as="geometry" />
        </mxCell>
        <mxCell id="o6ZmijZ3-3nJ9GncKMgN-18" value="" style="endArrow=classic;html=1;rounded=0;exitX=1;exitY=0.5;exitDx=0;exitDy=0;entryX=0.5;entryY=0;entryDx=0;entryDy=0;" parent="1" source="o6ZmijZ3-3nJ9GncKMgN-1" target="o6ZmijZ3-3nJ9GncKMgN-19" edge="1">
          <mxGeometry width="50" height="50" relative="1" as="geometry">
            <mxPoint x="570" y="160" as="sourcePoint" />
            <mxPoint x="600" y="180" as="targetPoint" />
            <Array as="points">
              <mxPoint x="650" y="120" />
            </Array>
          </mxGeometry>
        </mxCell>
        <mxCell id="o6ZmijZ3-3nJ9GncKMgN-19" value="Waiting for Admin Username / Password" style="rounded=1;whiteSpace=wrap;html=1;" parent="1" vertex="1">
          <mxGeometry x="585" y="240" width="130" height="60" as="geometry" />
        </mxCell>
        <mxCell id="o6ZmijZ3-3nJ9GncKMgN-20" value="Admin Login Selected" style="text;html=1;strokeColor=none;fillColor=none;align=center;verticalAlign=middle;whiteSpace=wrap;rounded=0;" parent="1" vertex="1">
          <mxGeometry x="470" y="90" width="140" height="30" as="geometry" />
        </mxCell>
        <mxCell id="o6ZmijZ3-3nJ9GncKMgN-22" value="" style="endArrow=classic;html=1;rounded=0;exitX=0.5;exitY=0;exitDx=0;exitDy=0;entryX=0.971;entryY=1.003;entryDx=0;entryDy=0;entryPerimeter=0;" parent="1" source="o6ZmijZ3-3nJ9GncKMgN-23" target="o6ZmijZ3-3nJ9GncKMgN-1" edge="1">
          <mxGeometry width="50" height="50" relative="1" as="geometry">
            <mxPoint x="610" y="390" as="sourcePoint" />
            <mxPoint x="520" y="160" as="targetPoint" />
            <Array as="points">
              <mxPoint x="500" y="400" />
              <mxPoint x="500" y="150" />
            </Array>
          </mxGeometry>
        </mxCell>
        <mxCell id="o6ZmijZ3-3nJ9GncKMgN-23" value="Invalid Credentials" style="text;html=1;strokeColor=none;fillColor=none;align=center;verticalAlign=middle;whiteSpace=wrap;rounded=0;" parent="1" vertex="1">
          <mxGeometry x="430" y="400" width="140" height="30" as="geometry" />
        </mxCell>
        <mxCell id="o6ZmijZ3-3nJ9GncKMgN-24" value="Validate Admin Username / Password" style="rounded=1;whiteSpace=wrap;html=1;" parent="1" vertex="1">
          <mxGeometry x="590" y="370" width="120" height="60" as="geometry" />
        </mxCell>
        <mxCell id="o6ZmijZ3-3nJ9GncKMgN-25" value="" style="endArrow=classic;html=1;rounded=0;exitX=0.5;exitY=1;exitDx=0;exitDy=0;" parent="1" source="o6ZmijZ3-3nJ9GncKMgN-19" target="o6ZmijZ3-3nJ9GncKMgN-24" edge="1">
          <mxGeometry width="50" height="50" relative="1" as="geometry">
            <mxPoint x="730" y="360" as="sourcePoint" />
            <mxPoint x="780" y="310" as="targetPoint" />
          </mxGeometry>
        </mxCell>
        <mxCell id="o6ZmijZ3-3nJ9GncKMgN-26" value="Credentials entered, verify them" style="text;html=1;strokeColor=none;fillColor=none;align=center;verticalAlign=middle;whiteSpace=wrap;rounded=0;" parent="1" vertex="1">
          <mxGeometry x="650" y="320" width="115" height="30" as="geometry" />
        </mxCell>
        <mxCell id="o6ZmijZ3-3nJ9GncKMgN-28" value="" style="endArrow=classic;html=1;rounded=0;exitX=1;exitY=0.5;exitDx=0;exitDy=0;entryX=0.5;entryY=0;entryDx=0;entryDy=0;" parent="1" source="o6ZmijZ3-3nJ9GncKMgN-9" target="o6ZmijZ3-3nJ9GncKMgN-23" edge="1">
          <mxGeometry width="50" height="50" relative="1" as="geometry">
            <mxPoint x="530" y="490" as="sourcePoint" />
            <mxPoint x="490" y="400" as="targetPoint" />
          </mxGeometry>
        </mxCell>
        <mxCell id="o6ZmijZ3-3nJ9GncKMgN-29" value="" style="endArrow=classic;html=1;rounded=0;exitX=0;exitY=0.5;exitDx=0;exitDy=0;" parent="1" source="o6ZmijZ3-3nJ9GncKMgN-1" edge="1">
          <mxGeometry width="50" height="50" relative="1" as="geometry">
            <mxPoint x="160" y="220" as="sourcePoint" />
            <mxPoint x="200" y="240" as="targetPoint" />
            <Array as="points">
              <mxPoint x="200" y="120" />
            </Array>
          </mxGeometry>
        </mxCell>
        <mxCell id="o6ZmijZ3-3nJ9GncKMgN-30" value="Display Create Account" style="rounded=1;whiteSpace=wrap;html=1;" parent="1" vertex="1">
          <mxGeometry x="140" y="240" width="120" height="50" as="geometry" />
        </mxCell>
        <mxCell id="o6ZmijZ3-3nJ9GncKMgN-31" value="Account Creation Selected" style="text;html=1;strokeColor=none;fillColor=none;align=center;verticalAlign=middle;whiteSpace=wrap;rounded=0;" parent="1" vertex="1">
          <mxGeometry x="160" y="90" width="110" height="30" as="geometry" />
        </mxCell>
        <mxCell id="o6ZmijZ3-3nJ9GncKMgN-32" value="" style="endArrow=classic;html=1;rounded=0;exitX=0.5;exitY=1;exitDx=0;exitDy=0;entryX=0.5;entryY=0;entryDx=0;entryDy=0;" parent="1" source="o6ZmijZ3-3nJ9GncKMgN-30" target="o6ZmijZ3-3nJ9GncKMgN-33" edge="1">
          <mxGeometry width="50" height="50" relative="1" as="geometry">
            <mxPoint x="170" y="400" as="sourcePoint" />
            <mxPoint x="200" y="360" as="targetPoint" />
          </mxGeometry>
        </mxCell>
        <mxCell id="o6ZmijZ3-3nJ9GncKMgN-33" value="Waiting For New Account Info" style="rounded=1;whiteSpace=wrap;html=1;" parent="1" vertex="1">
          <mxGeometry x="140" y="370" width="120" height="50" as="geometry" />
        </mxCell>
        <mxCell id="o6ZmijZ3-3nJ9GncKMgN-34" value="Validate Info and Create Account" style="text;html=1;strokeColor=none;fillColor=none;align=center;verticalAlign=middle;whiteSpace=wrap;rounded=0;" parent="1" vertex="1">
          <mxGeometry x="196" y="441" width="90" height="30" as="geometry" />
        </mxCell>
        <mxCell id="o6ZmijZ3-3nJ9GncKMgN-35" value="Display Account Creation Screen" style="text;html=1;strokeColor=none;fillColor=none;align=center;verticalAlign=middle;whiteSpace=wrap;rounded=0;" parent="1" vertex="1">
          <mxGeometry x="100" y="310" width="90" height="30" as="geometry" />
        </mxCell>
        <mxCell id="o6ZmijZ3-3nJ9GncKMgN-36" value="Account Created" style="rounded=1;whiteSpace=wrap;html=1;" parent="1" vertex="1">
          <mxGeometry x="145" y="500" width="110" height="60" as="geometry" />
        </mxCell>
        <mxCell id="o6ZmijZ3-3nJ9GncKMgN-37" value="" style="endArrow=classic;html=1;rounded=0;exitX=0.5;exitY=1;exitDx=0;exitDy=0;entryX=0.5;entryY=0;entryDx=0;entryDy=0;" parent="1" source="o6ZmijZ3-3nJ9GncKMgN-33" target="o6ZmijZ3-3nJ9GncKMgN-36" edge="1">
          <mxGeometry width="50" height="50" relative="1" as="geometry">
            <mxPoint x="210" y="490" as="sourcePoint" />
            <mxPoint x="260" y="440" as="targetPoint" />
          </mxGeometry>
        </mxCell>
        <mxCell id="o6ZmijZ3-3nJ9GncKMgN-38" value="" style="endArrow=classic;html=1;rounded=0;exitX=0.5;exitY=1;exitDx=0;exitDy=0;entryX=0;entryY=0.5;entryDx=0;entryDy=0;" parent="1" source="o6ZmijZ3-3nJ9GncKMgN-36" target="o6ZmijZ3-3nJ9GncKMgN-11" edge="1">
          <mxGeometry width="50" height="50" relative="1" as="geometry">
            <mxPoint x="270" y="670" as="sourcePoint" />
            <mxPoint x="290" y="550" as="targetPoint" />
            <Array as="points">
              <mxPoint x="200" y="580" />
              <mxPoint x="280" y="580" />
              <mxPoint x="280" y="530" />
            </Array>
          </mxGeometry>
        </mxCell>
        <mxCell id="o6ZmijZ3-3nJ9GncKMgN-39" value="Account successfully created, display home menu" style="text;html=1;strokeColor=none;fillColor=none;align=center;verticalAlign=middle;whiteSpace=wrap;rounded=0;" parent="1" vertex="1">
          <mxGeometry x="170" y="588" width="140" height="30" as="geometry" />
        </mxCell>
        <mxCell id="o6ZmijZ3-3nJ9GncKMgN-40" value="" style="endArrow=classic;html=1;rounded=0;exitX=0;exitY=0.5;exitDx=0;exitDy=0;entryX=0;entryY=0.5;entryDx=0;entryDy=0;" parent="1" source="o6ZmijZ3-3nJ9GncKMgN-36" target="o6ZmijZ3-3nJ9GncKMgN-33" edge="1">
          <mxGeometry width="50" height="50" relative="1" as="geometry">
            <mxPoint x="60" y="560" as="sourcePoint" />
            <mxPoint x="90" y="400" as="targetPoint" />
            <Array as="points">
              <mxPoint x="90" y="530" />
              <mxPoint x="90" y="395" />
            </Array>
          </mxGeometry>
        </mxCell>
        <mxCell id="o6ZmijZ3-3nJ9GncKMgN-41" value="Invalid Info, Ask Again" style="text;html=1;strokeColor=none;fillColor=none;align=center;verticalAlign=middle;whiteSpace=wrap;rounded=0;" parent="1" vertex="1">
          <mxGeometry x="92" y="444" width="60" height="30" as="geometry" />
        </mxCell>
        <mxCell id="o6ZmijZ3-3nJ9GncKMgN-42" value="" style="endArrow=classic;html=1;rounded=0;entryX=1;entryY=0.5;entryDx=0;entryDy=0;" parent="1" source="o6ZmijZ3-3nJ9GncKMgN-24" target="o6ZmijZ3-3nJ9GncKMgN-11" edge="1">
          <mxGeometry width="50" height="50" relative="1" as="geometry">
            <mxPoint x="650" y="520" as="sourcePoint" />
            <mxPoint x="700" y="470" as="targetPoint" />
            <Array as="points">
              <mxPoint x="650" y="530" />
            </Array>
          </mxGeometry>
        </mxCell>
        <mxCell id="o6ZmijZ3-3nJ9GncKMgN-43" value="Valid Credentials, Display Home menu with admin features" style="text;html=1;strokeColor=none;fillColor=none;align=center;verticalAlign=middle;whiteSpace=wrap;rounded=0;" parent="1" vertex="1">
          <mxGeometry x="504" y="492" width="150" height="30" as="geometry" />
        </mxCell>
        <mxCell id="o6ZmijZ3-3nJ9GncKMgN-44" value="" style="endArrow=classic;html=1;rounded=0;exitX=0;exitY=0.5;exitDx=0;exitDy=0;" parent="1" source="o6ZmijZ3-3nJ9GncKMgN-24" edge="1">
          <mxGeometry width="50" height="50" relative="1" as="geometry">
            <mxPoint x="510" y="420" as="sourcePoint" />
            <mxPoint x="500" y="400" as="targetPoint" />
          </mxGeometry>
        </mxCell>
      </root>
    </mxGraphModel>
  </diagram>
</mxfile>
